<!-- icon666.com - MILLIONS OF FREE VECTOR ICONS -->
<svg version="1.1" id="Layer_1" xmlns="http://www.w3.org/2000/svg" xmlns:xlink="http://www.w3.org/1999/xlink" x="0px"
     y="0px" viewBox="0 0 512 512" style="enable-background:new 0 0 512 512;" xml:space="preserve"><path style="fill:#FFCD33;" d="M164.971,90.015C165.005,48.53,131.252,15,90,15c-41.353,0-75,33.647-75,75 c0,40.782,33.071,74.868,74.883,74.868l33.809-1.465L75,105h89.956L164.971,90.015z"></path>
    <path style="fill:#29CC96;"
          d="M131.528,149.385c6.516,7.851,3.454,19.808-5.991,23.555c-11.777,4.673-23.848,6.973-35.713,6.973 C40.143,179.912,0,141.353,0,92C0,42.371,40.371,0,90,0c56.004,0,99.248,50.991,88.228,107.856 c-1.362,7.046-7.529,12.144-14.722,12.144L131.528,149.385z M149.971,90c0.035-33.01-26.86-60-59.971-60c-33.091,0-60,26.909-60,60 c0,33.052,27.414,61.408,62.812,59.795L149.971,90z"></path>
    <path style="fill:#42516D;"
          d="M497.14,0h-90c-4.849,0-9.39,2.344-12.202,6.284c-52.743,73.841-83.427,116.798-134.442,188.218 c22.546-0.728,31.262-7.431,49.019-17.025c87.859-123,50.587-70.821,105.344-147.477h82.28C516.913,30,516.994,0,497.14,0z"></path>
    <path style="fill:#E0E4EC;"
          d="M448.54,114.6l-55.499,66.9c-8.701-6-18.301,6.899-28.2,7.2c-18.602,0.3-38.101-5.4-55.201,3.9 c-17.999,9.6-26.7,16.199-49.2,16.8h-3.3c-15.601,0-33.041-4.2-46.539-13.2c-22.2-15-50.101-17.699-74.7-8.101 c-5.7,2.401-11.102-9.899-16.501-6.299l-55.8-67.2C55.201,104.7,62.401,90,75,90h362.14C449.739,90,456.939,104.7,448.54,114.6z"></path>
    <path style="fill:#D1D7E3;"
          d="M448.54,114.6l-55.499,66.9c-8.701-6-18.301,6.899-28.2,7.2c-18.602,0.3-38.101-5.4-55.201,3.9 c-17.999,9.6-26.7,16.199-49.2,16.8h-3.3V90h180C449.739,90,456.939,104.7,448.54,114.6z"></path>
    <path style="fill:#29CC96;"
          d="M309.64,177.599c-17.999,9.6-26.7,16.199-49.2,16.8h-3.3c-15.601,0-33.041-4.2-46.539-13.2 c-27.601-18.6-63.6-18.3-91.201,0.601L210,290.29l20.385,20.383h55.167l16.589-20.383L393.04,181.5 C367.84,164.399,335.74,163.2,309.64,177.599z"></path>
    <path style="fill:#25B987;"
          d="M285.552,310.673l16.589-20.383L393.04,181.5c-25.201-17.1-57.301-18.3-83.401-3.9 c-17.999,9.6-26.7,16.199-49.2,16.8h-3.3v116.274h28.413V310.673z"></path>
    <path style="fill:#E0E4EC;"
          d="M347.14,482c-24.3,0-45-19.801-45-45V290.292l0.002-0.002H210V437c0,24.899-20.099,45-45,45 c-19.799,0-19.799,30,0,30h182.14C366.939,512,366.939,482,347.14,482z"></path>
    <path style="fill:#D1D7E3;"
          d="M347.14,482c-24.3,0-45-19.801-45-45V290.292l0.002-0.002H257.14V512h90 C366.939,512,366.939,482,347.14,482z"></path></svg>